<svg width="340" height="100" xmlns="http://www.w3.org/2000/svg">

 <g>
  <title>background</title>
  <rect fill="none" id="canvas_background" height="102" width="342" y="-1" x="-1"/>
 </g>
 <g>
  <title>Layer 1</title>
  <path id="svg_2" d="m233.329987,5.119995c8.590027,-0.330002 17.190002,-0.220001 25.779999,-0.059998c-3.609985,11.809998 -6.819977,23.75 -10.689972,35.470001c-2.710022,-0.080002 -5.410004,-0.139999 -8.120026,-0.199997c2.450012,-8.669998 5.130005,-17.270004 7.670013,-25.910004c-5.779999,-0.130005 -11.570007,-0.039993 -17.350006,-0.089996c0.890015,-3.080002 1.800018,-6.139999 2.709991,-9.210007z" fill="#cbdae9"/>
  <path id="svg_3" d="m221.850006,16.389999c7.839996,-0.039993 15.690002,-0.050003 23.529999,-0.039993c-3.410004,11.149994 -6.690002,22.339996 -10,33.509995c-2.390015,-0.059998 -4.779999,-0.070007 -7.160004,-0.149994c2.709991,-8.710007 5.25,-17.480011 7.809998,-26.240005c-5.429993,-0.040009 -10.860001,-0.020004 -16.289993,-0.009995c0.709991,-2.350006 1.419998,-4.710007 2.110001,-7.070007z" fill="#649ebe"/>
  <path id="svg_4" d="m6.389999,51.110001c-1.559999,-13.389999 9.029999,-27.149994 22.600002,-28.389999c4.91,-0.309998 10.77,0.069992 14.149998,4.149994c2.520004,2.960007 2.290001,7.040009 2.080002,10.660004c-3.809998,0.050003 -7.620003,0.020004 -11.43,0.070007c-0.209999,-1.900009 0.07,-4.430008 -2.060001,-5.330002c-3.82,-2 -8.25,0.759995 -10.139999,4.190002c-2.049999,3.75 -3.75,8.059998 -3.189999,12.409988c0.559998,2.440002 3.299999,3.309998 5.529999,2.980011c3.66,0.099991 5.709999,-3.37001 7.459999,-6.029999c3.850002,-0.090012 7.690002,-0.070007 11.540001,0c-3.220001,7.329987 -9.75,13.519989 -17.860001,14.75c-4.599998,0.509995 -9.669998,0.669998 -13.739998,-1.890015c-2.730003,-1.549988 -4.570004,-4.469986 -4.940002,-7.569992z" fill="#056083"/>
  <path id="svg_5" d="m121.190002,22.679993c3.569992,-0.049988 7.139999,-0.029999 10.709991,-0.009995c-0.779999,2.550003 -1.559998,5.089996 -2.389999,7.619995c-3.5,-0.039993 -7,-0.039993 -10.5,-0.049988c0.710007,-2.529999 1.430008,-5.040009 2.180008,-7.560013z" fill="#0d5e80"/>
  <path id="svg_6" d="m193.710007,23.589996c3.559998,0 7.119995,-0.009995 10.679993,0.020004c-3.610001,12.039993 -7.259995,24.080002 -10.660004,36.179993c-3.580002,0.100006 -7.169998,0.090012 -10.75,0.050003c3.580002,-12.080002 7.160004,-24.169998 10.730011,-36.25z" fill="#066083"/>
  <path id="svg_7" d="m138.669998,25.279999c3.5,-0.020004 7.009995,-0.029999 10.509995,0.040009c-0.829987,2.709991 -1.62999,5.429993 -2.479996,8.139999c1.690002,0.009995 3.380005,0.019989 5.070007,0.039993c-0.580002,2 -1.169998,4 -1.710007,6.020004c-1.709991,0.009995 -3.410004,0.12999 -5.110001,0.139999c-1.209991,4.139999 -2.660004,8.229996 -3.369995,12.5c1.509995,0.110001 3.029999,0.220001 4.539993,0.319992c-0.799988,2.600006 -1.559998,5.220001 -2.599991,7.730011c-4.540009,-0.200012 -9.699997,0.959991 -13.600006,-2.030014c0.130005,-6.449997 2.710007,-12.439987 4.419998,-18.559998c-1.279999,-0.009995 -2.559998,-0.029999 -3.839996,-0.089996c0.660004,-2.020004 1.309998,-4.050003 1.970001,-6.069992c1.259995,-0.01001 2.509995,-0.01001 3.779999,-0.01001c0.789993,-2.729996 1.619995,-5.440002 2.419998,-8.169998z" fill="#066083"/>
  <path id="svg_8" d="m209.899994,25.479996c7.840012,-0.050003 15.680008,-0.050003 23.529999,0c-3.48999,11.190002 -6.609985,22.490005 -10.139999,33.660004c-7.729996,0 -15.469986,0.059998 -23.199997,-0.009995c2.980011,-11.300003 6.639999,-22.400009 9.809998,-33.650009z" fill="#0278aa"/>
  <path id="svg_9" d="m47.980003,41.5c1.93,-5.429993 7.479996,-8.220001 12.949997,-8.600006c5.279999,-0.349991 12,-1.069992 15.610001,3.700012c0,8.099991 -5.169998,15.289993 -4.849998,23.339996c-3.529999,-0.110001 -7.060005,-0.089996 -10.590004,-0.080002c0.07,-0.619995 0.230003,-1.869995 0.310005,-2.5c-4.340004,3.050003 -9.990005,4.229996 -15.130005,2.759995c-2.150002,-0.839996 -3.029999,-3.039993 -3.769997,-5.029999c0.979996,-3.139999 2.079994,-6.610001 5.129997,-8.349991c5.230003,-3.590012 12.230003,-1.700012 17.57,-4.76001c1.700005,-2.470001 -1.32,-2.87999 -3.159996,-2.769989c-1.700005,-0.090012 -2.75,1.399994 -3.920006,2.37999c-3.379997,0.050003 -6.769997,0.050003 -10.149994,-0.089996z" fill="#075f83"/>
  <path id="svg_10" d="m83.519997,33.490005c3.25,-0.01001 6.490005,-0.01001 9.730003,0.009995c-0.480003,1.130005 -0.940002,2.270004 -1.389999,3.399994c3.729996,-3.179993 9,-5.569992 13.850006,-3.470001c4.37999,1.75 5.289993,7.380005 4.12999,11.470001c-1.569992,8.040009 -8.199997,15.930008 -16.919998,15.820007c-2.479996,0.309998 -4.449997,-1.210007 -6.040001,-2.889999c-0.939995,3.669998 -2.099998,7.279999 -2.989998,10.959991c-3.589996,0.310013 -7.199997,0.270004 -10.790001,0.080002c3.419998,-11.809998 6.900002,-23.599991 10.419998,-35.37999z" fill="#066083"/>
  <path id="svg_11" d="m117.960007,33.490005c3.559998,-0.020004 7.12999,-0.01001 10.689987,-0.01001c-2.62999,8.770004 -5.220001,17.550003 -7.720001,26.350006c-3.569992,0.089996 -7.149994,0.110001 -10.719986,-0.009995c2.610001,-8.770004 5.189987,-17.540009 7.75,-26.330002z" fill="#065f85"/>
  <path id="svg_12" d="m163.710007,33.910004c4.549988,-1.5 9.75,-1.919998 14.199997,0.160004c2.649994,1.229996 4.769989,3.87999 4.819992,6.87999c0.580002,8.550003 -5.639999,16.87001 -13.87999,19.029999c-3.800003,0.949997 -7.900009,1.090012 -11.670013,-0.080002c-3.419998,-1.009995 -6.119995,-4.309998 -5.98999,-7.939987c-0.110001,-7.810013 5.119995,-15.460007 12.520004,-18.050003z" fill="#076083"/>
  <path id="svg_13" d="m162.449997,52.460007c-1.309998,-5.080002 1.290009,-11.190002 6.470001,-12.930008c0.660004,0.279999 1.990005,0.850006 2.660004,1.130005c0.770004,4.110001 -0.169998,8.709991 -3.330002,11.610001c-1.559998,1.440002 -4.259995,1.869995 -5.800003,0.190002z" fill="#ffffff"/>
  <path id="svg_14" d="m89.580002,50.029999c-0.200005,-4.720001 3.199997,-10.459991 8.610001,-9.440002c2.279999,4.139999 0.079994,9.850006 -4.139999,11.800003c-1.950005,0.789993 -4.120003,-0.229996 -4.470001,-2.360001z" fill="#ffffff"/>
  <path id="svg_15" d="m54.279999,54.419998c-0.459999,-5.149994 5.980003,-4.949997 9.419998,-5.970001c-1.099998,1.900009 -1.839996,4.229996 -3.809998,5.440002c-1.659996,1.130005 -3.75,0.550003 -5.610001,0.529999z" fill="#ffffff"/>
  <path id="svg_16" d="m113.759995,62.679993c2.660004,0.030014 5.320007,0.030014 7.970001,0.030014c-5.179993,7.849991 -10.12999,15.849991 -15.330002,23.679993c-2.599991,-0.020004 -5.199997,-0.029999 -7.809998,-0.029999c-0.179993,-7.899994 -0.969994,-15.759995 -1.07,-23.660004c2.630005,0 5.260002,0 7.900002,0.020004c-0.160004,5.039993 -0.279999,10.089996 -0.199997,15.139999c2.619995,-5.190002 5.600006,-10.169998 8.539993,-15.180008z" fill="#0a75a2"/>
  <path id="svg_17" d="m210.970001,62.729996c2.330002,0 4.649994,-0.019989 6.979996,-0.019989c-0.759995,2.839996 -1.580002,5.659988 -2.569992,8.419998c2.789993,-2.600006 6.639999,-3.059998 10.119995,-1.580002c2.190002,5.709991 -1.619995,11.330002 -2.830002,16.869995c-2.25,-0.029999 -4.509995,-0.050003 -6.759995,-0.069992c1.039993,-4.020004 2.589996,-7.950012 2.889999,-12.130005c-1.400009,0.339996 -3.5,-0.360001 -4.240005,1.279999c-1.720001,3.410004 -2.429993,7.199997 -3.550003,10.830002c-2.330002,0.020004 -4.649994,0.039993 -6.979996,0.059998c2.300003,-7.889999 4.639999,-15.770004 6.940002,-23.660004z" fill="#0d739f"/>
  <path id="svg_18" d="m177.460007,67.229996c0.459991,-1.659988 1.039993,-3.279999 1.509995,-4.940002c2.330002,-0.029999 4.660004,-0.039993 6.990005,-0.029999c-0.5,1.660004 -1.030014,3.330002 -1.530014,5c-2.329987,-0.019989 -4.649994,-0.029999 -6.969986,-0.029999z" fill="#18709d"/>
  <path id="svg_19" d="m147.369995,72.350006c1.940002,-2.240005 4.520004,-3.779999 7.529999,-3.920013c-0.539993,2.300003 -1.229996,4.570007 -1.889999,6.850006c-1.970001,0.330002 -4.429993,0.199997 -5.639999,2.139999c-1.73999,2.680008 -2.279999,5.919998 -3.220001,8.930008c-2.319992,0.009995 -4.639999,0.019989 -6.949997,0.039993c1.559998,-5.690002 3.449997,-11.289993 4.850006,-17.029999c2.229996,-0.080002 4.449997,-0.110001 6.679993,-0.139999c-0.339996,0.789993 -1.019989,2.350006 -1.360001,3.130005z" fill="#0c749e"/>
  <path id="svg_20" d="m116.860001,82c-1.070007,-8.839996 9.669998,-16.289993 17.589996,-12.25c3.430008,1.940002 2.979996,6.259995 2.76001,9.600006c-4.680008,0.089996 -9.360001,-0.029999 -14.030014,0.159988c0.390015,1.12001 1.200012,2 1.740005,3.050003c1.619995,0.220001 3.020004,-0.720001 4.410004,-1.380005c2.190002,-0.039993 4.389999,-0.029999 6.589996,0.030014c-2.279999,2.759995 -5.229996,5.309998 -8.990005,5.469986c-3.849991,0.720001 -9.12999,-0.169998 -10.069992,-4.679993z" fill="#0f739f"/>
  <path id="svg_21" d="m154.339996,76.220001c1.320007,-7.029999 10.040009,-9.240005 15.839996,-6.520004c1.840012,0.770004 1.570007,2.940002 1.950012,4.540009c-2.020004,0.029999 -4.040009,0.029999 -6.059998,-0.01001c-0.860001,-2.339996 -3.400009,-1.819992 -4.590012,-0.139999c2.949997,1.199997 6.610001,1.320007 8.900009,3.76001c1.039993,2.009995 0.049988,4.579987 -1.550003,6.029999c-3.490005,3.389999 -8.910004,3.349991 -13.369995,2.440002c-2.340012,-0.540009 -2.950012,-3 -3.330002,-5.030014c2.190002,-0.229996 4.37999,-0.389999 6.569992,-0.5c0.470001,2.01001 2.240005,2.139999 3.949997,2.200012c0.070007,-0.590012 0.220001,-1.790009 0.300003,-2.389999c-3.160004,-0.830002 -6.830002,-1.25 -8.610001,-4.380005z" fill="#0e739d"/>
  <path id="svg_22" d="m176.860001,69.289993c2.339996,-0.049988 4.669998,-0.069992 7.009995,-0.069992c-1.599991,5.709991 -3.399994,11.369995 -4.919998,17.110001c-2.339996,0.020004 -4.669998,0.039993 -7,0.059998c1.5,-5.740005 3.320007,-11.389999 4.910004,-17.100006z" fill="#10739c"/>
  <path id="svg_23" d="m183.809998,82.100006c-1.029999,-9.01001 9.669998,-16.420013 17.770004,-12.440002c2.399994,1.059998 2.809998,3.729996 2.940002,6.059998c-2.350006,0.050003 -4.690002,0.069992 -7.040009,0.089996c-0.309998,-0.690002 -0.940002,-2.080002 -1.25,-2.770004c-4.099991,0.550003 -5.959991,5.12001 -5.089996,8.790009c1.139999,-0.009995 2.270004,-0.020004 3.410004,-0.029999c0.440002,-0.540009 1.330002,-1.62001 1.770004,-2.169998c2.37999,0 4.759995,0.009995 7.139999,0.059998c-2.01001,3.559998 -5.310013,6.73999 -9.610001,6.98999c-3.779999,0.600006 -9.100006,-0.109985 -10.040009,-4.579987z" fill="#0f739e"/>
  <path id="svg_24" d="m227.690002,83.330002c-2.770004,-9.220001 9.100006,-18.139999 17.320007,-13.430008c3.429993,1.920013 2.789978,6.240005 2.349976,9.5c-4.519989,0 -9.039978,-0.079987 -13.559998,0.110001c0.330017,0.919998 0.690002,1.840012 1.080017,2.740005c1.299988,0.729996 2.630005,-0.139999 3.899994,-0.5c2.459991,-1.050003 5.200012,-0.490005 7.790009,-0.429993c-2.399994,2.339996 -5.02002,4.889999 -8.529999,5.269989c-3.619995,0.540009 -8.490021,0.570007 -10.350006,-3.259995z" fill="#0e739c"/>
  <path id="svg_25" d="m258.01001,71.899994c2.039978,-1.949997 4.519989,-3.37999 7.410004,-3.509995c-0.660004,2.339996 -1.360016,4.669998 -2.080017,7c-2.029999,0.180008 -4.559998,0.180008 -5.709991,2.210007c-1.589996,2.709991 -2.149994,5.849991 -3.130005,8.799988c-2.309998,-0.029999 -4.619995,-0.059998 -6.920013,-0.069992c1.75,-5.680008 3.330017,-11.419998 5.110016,-17.089996c2.100006,0 4.190002,0.009995 6.290009,0.019989c-0.240021,0.660004 -0.720001,1.980011 -0.970001,2.639999z" fill="#0c73a0"/>
  <path id="svg_26" d="m267.079987,69.380005c2.26001,-0.240005 4.540009,-0.139999 6.820007,-0.150009c-1.049988,4.090012 -2.649994,8.080002 -2.880005,12.330002c1.430023,-0.259995 3.300018,0.050003 4.130005,-1.48999c1.860016,-3.340012 2.5,-7.200012 3.640015,-10.820007c2.319977,0 4.649994,0.009995 6.97998,0.029999c-1.73999,5.690002 -3.309998,11.440002 -5.139984,17.119995c-2.100006,-0.019989 -4.209991,-0.019989 -6.309998,-0.029999c0.149994,-0.5 0.449982,-1.509995 0.600006,-2.009995c-3.029999,2.529999 -9.52002,4.319992 -11.390015,-0.309998c-0.100006,-5.050003 2.049988,-9.919998 3.549988,-14.669998z" fill="#0c749f"/>
  <path id="svg_27" d="m288.730011,69.270004c2.109985,-0.020004 4.209991,-0.040009 6.319977,-0.050003c-0.179993,0.550003 -0.539978,1.660004 -0.720001,2.220001c2.01001,-1.300003 4.080017,-3.020004 6.650024,-2.809998c2.079987,-0.150009 4.829987,0.919998 4.829987,3.37999c0.190002,4.990005 -2.190002,9.62001 -3.410004,14.37001c-2.320007,-0.020004 -4.630005,-0.01001 -6.949982,-0.020004c1.22998,-3.919998 2.440002,-7.839996 3.25,-11.869995c-1.700012,-0.110001 -4.110016,-0.590012 -4.779999,1.529999c-1.470001,3.330002 -2.160004,6.940002 -3.340027,10.37999c-2.25,-0.029999 -4.5,-0.049988 -6.73999,-0.049988c1.410004,-5.75 3.209991,-11.400009 4.890015,-17.080002z" fill="#0e739e"/>
  <path id="svg_28" d="m311.26001,71.279999c2.869995,-2.75 7.97998,-3.959991 10.859985,-0.580002c1.290009,-2.479996 4.570007,-1.099991 6.820007,-1.470001c-1.679993,5.529999 -3.119995,11.130005 -5,16.600006c-0.809998,2.849991 -3.290009,4.589996 -5.75,5.959991c-0.640015,-0.399994 -1.920013,-1.209991 -2.570007,-1.610001c0.209991,-0.619995 0.420013,-1.23999 0.640015,-1.849991c0.470001,-1.400009 1.130005,-2.720001 1.769989,-4.040009c-3.290009,1.389999 -8.019989,2.430008 -10.299988,-1.169998c-1.410004,-4.199997 0.410004,-8.909988 3.529999,-11.839996z" fill="#0b74a0"/>
  <path id="svg_29" d="m124.389999,75.570007c1.539993,-1.770004 3.589996,-2.680008 5.949997,-2.380005c0.199997,0.630005 0.610001,1.899994 0.809998,2.539993c-2.259995,-0.009995 -4.509995,-0.050003 -6.759995,-0.159988z" fill="#ffffff"/>
  <path id="svg_30" d="m234.859985,75.570007c1.610016,-2.020004 3.880005,-2.87001 6.400024,-2.080002c0.029999,0.569992 0.089996,1.720001 0.130005,2.289993c-2.180023,-0.039993 -4.360016,-0.089996 -6.530029,-0.209991z" fill="#ffffff"/>
  <path id="svg_31" d="m314.459991,80.669998c-0.149994,-2.660004 0.300018,-6.599991 3.570007,-7.020004c2.279999,-0.559998 2.790009,2.610001 1.75,4.100006c-0.660004,2.399994 -3.070007,3.229996 -5.320007,2.919998z" fill="#ffffff"/>
  <path id="svg_32" d="m305.190002,87.289993c3.730011,-0.289993 7.450012,0.070007 11.070007,1.040009c-0.220001,0.610001 -0.430023,1.229996 -0.640015,1.849991c0.649994,0.400009 1.929993,1.210007 2.570007,1.610001c-4.540009,0.420013 -11.910004,1.600006 -13,-4.5z" fill="#1a6e93"/>
 </g>
</svg>