<svg width="340" height="100" xmlns="http://www.w3.org/2000/svg">
 <g>
  <title>background</title>
  <rect x="-1" y="-1" width="342" height="102" id="canvas_background" fill="#ffffff"/>
 </g>

 <g>
  <title>Layer 1</title>
  <path fill="#cbdae9" d="m233.329987,5.12c8.590027,-0.33001 17.190002,-0.22001 25.779999,-0.06c-3.609985,11.809989 -6.819977,23.75 -10.689972,35.469999c-2.710022,-0.079998 -5.410004,-0.139999 -8.120026,-0.199997c2.450012,-8.670002 5.130005,-17.270002 7.670013,-25.910002c-5.779999,-0.13001 -11.570007,-0.04 -17.350006,-0.09c0.890015,-3.08 1.800018,-6.14 2.709991,-9.21001l0,0.00001z" id="svg_2"/>
  <path fill="#649ebe" d="m221.850006,16.389999c7.839996,-0.039989 15.690002,-0.049999 23.529999,-0.039989c-3.410004,11.14999 -6.690002,22.339989 -10,33.509991c-2.390015,-0.060001 -4.779999,-0.070011 -7.160004,-0.14999c2.709991,-8.710011 5.25,-17.480011 7.809998,-26.240011c-5.429993,-0.040009 -10.860001,-0.019999 -16.289993,-0.009989c0.709991,-2.35001 1.419998,-4.710011 2.110001,-7.070011z" id="svg_3"/>
  <path fill="#056083" d="m6.39,51.110001c-1.56,-13.389999 9.03,-27.14999 22.6,-28.390001c4.910002,-0.309999 10.769999,0.06999 14.15,4.150002c2.52,2.959999 2.290001,7.039999 2.080002,10.659998c-3.810001,0.050003 -7.620003,0.02 -11.43,0.070011c-0.209999,-1.900009 0.07,-4.430012 -2.060001,-5.330009c-3.82,-2 -8.25,0.759998 -10.139999,4.19001c-2.049999,3.75 -3.75,8.05999 -3.190001,12.409981c0.559999,2.44001 3.300001,3.309998 5.530001,2.980019c3.66,0.099991 5.709999,-3.37001 7.459999,-6.029999c3.850002,-0.090023 7.690002,-0.070011 11.540001,0c-3.220001,7.329979 -9.75,13.519989 -17.860001,14.75c-4.6,0.509991 -9.67,0.669991 -13.74,-1.890022c-2.73,-1.549988 -4.57,-4.469978 -4.94,-7.569988z" id="svg_4"/>
  <path fill="#0d5e80" d="m121.190002,22.679991c3.569984,-0.049992 7.139999,-0.030001 10.709991,-0.009991c-0.779999,2.549999 -1.559998,5.089991 -2.389999,7.619989c-3.500008,-0.039989 -7.000008,-0.039989 -10.500008,-0.04999c0.710014,-2.529989 1.430016,-5.039999 2.180016,-7.560009z" id="svg_5"/>
  <path fill="#066083" d="m193.710007,23.59c3.559998,0 7.119995,-0.01 10.679993,0.02c-3.610001,12.039989 -7.259995,24.079998 -10.660004,36.179989c-3.580002,0.10001 -7.169998,0.090019 -10.75,0.050011c3.580002,-12.080009 7.160004,-24.170002 10.730011,-36.25z" id="svg_6"/>
  <path fill="#066083" d="m138.669998,25.280001c3.5,-0.02001 7.009995,-0.030001 10.509995,0.040009c-0.829987,2.709991 -1.62999,5.429991 -2.479996,8.140001c1.690002,0.009991 3.380005,0.019989 5.070007,0.039989c-0.580002,2 -1.169998,4 -1.710007,6.02c-1.709991,0.009998 -3.410004,0.12999 -5.110001,0.139999c-1.209991,4.139999 -2.660004,8.23 -3.369995,12.5c1.509995,0.110001 3.029999,0.220001 4.539993,0.319988c-0.799988,2.600014 -1.559998,5.220013 -2.599991,7.730022c-4.540009,-0.20002 -9.699997,0.959988 -13.600006,-2.030022c0.130005,-6.450001 2.710007,-12.439987 4.419998,-18.559998c-1.279999,-0.009991 -2.559998,-0.029991 -3.839996,-0.089993c0.660004,-2.020008 1.309998,-4.049999 1.970001,-6.069988c1.259995,-0.01001 2.509995,-0.01001 3.779999,-0.01001c0.789993,-2.730001 1.619995,-5.44001 2.419998,-8.17z" id="svg_7"/>
  <path fill="#0278aa" d="m209.899994,25.48c7.840012,-0.050009 15.680008,-0.050009 23.529999,0c-3.48999,11.189999 -6.609985,22.490002 -10.139999,33.66c-7.729996,0 -15.469986,0.060001 -23.199997,-0.009998c2.980011,-11.299999 6.639999,-22.400002 9.809998,-33.650002z" id="svg_8"/>
  <path fill="#075f83" d="m47.98,41.5c1.93,-5.429989 7.48,-8.220001 12.950001,-8.60001c5.279999,-0.349991 12,-1.06999 15.610001,3.70002c0,8.099991 -5.169998,15.289989 -4.849998,23.339989c-3.529999,-0.109997 -7.060005,-0.089989 -10.590004,-0.079998c0.07,-0.619991 0.230003,-1.869991 0.310001,-2.5c-4.34,3.049999 -9.990002,4.23 -15.130001,2.759998c-2.149998,-0.84 -3.029999,-3.039997 -3.77,-5.029999c0.980003,-3.139999 2.080002,-6.610001 5.130001,-8.349991c5.23,-3.590019 12.23,-1.70002 17.57,-4.76001c1.700005,-2.470009 -1.32,-2.87999 -3.16,-2.769989c-1.700001,-0.090019 -2.75,1.39999 -3.919998,2.37999c-3.380001,0.049999 -6.77,0.049999 -10.150002,-0.09z" id="svg_9"/>
  <path fill="#066083" d="m83.519997,33.490009c3.25,-0.01001 6.490005,-0.01001 9.730003,0.009991c-0.480003,1.130009 -0.940002,2.27 -1.389999,3.39999c3.729996,-3.179989 9,-5.56999 13.850006,-3.470001c4.37999,1.75 5.289993,7.380013 4.12999,11.470001c-1.569984,8.040009 -8.199997,15.930012 -16.919998,15.820011c-2.479996,0.309998 -4.449997,-1.210003 -6.040001,-2.889999c-0.939995,3.669998 -2.099998,7.279999 -2.989998,10.959991c-3.589996,0.31002 -7.199997,0.270004 -10.790001,0.080009c3.419998,-11.810001 6.900002,-23.599991 10.419998,-35.379993z" id="svg_10"/>
  <path fill="#065f85" d="m117.960007,33.490009c3.55999,-0.020008 7.12999,-0.01001 10.689987,-0.01001c-2.629997,8.77 -5.220001,17.549999 -7.720001,26.350002c-3.569992,0.089996 -7.149994,0.109997 -10.719986,-0.009991c2.610001,-8.770012 5.18998,-17.540012 7.75,-26.330009l0,0.000008z" id="svg_11"/>
  <path fill="#076083" d="m163.710007,33.91c4.549988,-1.5 9.75,-1.919991 14.199997,0.160011c2.649994,1.229988 4.769989,3.87999 4.819992,6.87999c0.580002,8.549999 -5.639999,16.87001 -13.87999,19.029999c-3.800003,0.949989 -7.900009,1.090012 -11.670013,-0.080009c-3.419998,-1.009991 -6.119995,-4.30999 -5.98999,-7.93998c-0.110001,-7.81002 5.119995,-15.460011 12.520004,-18.050011z" id="svg_12"/>
  <path fill="#ffffff" d="m162.449997,52.460011c-1.309998,-5.080009 1.290009,-11.19001 6.470001,-12.930012c0.660004,0.280003 1.990005,0.850002 2.660004,1.130001c0.770004,4.110001 -0.169998,8.709999 -3.330002,11.610001c-1.559998,1.44001 -4.259995,1.869999 -5.800003,0.19001z" id="svg_13"/>
  <path fill="#ffffff" d="m89.580002,50.029999c-0.200005,-4.719997 3.199997,-10.459988 8.610001,-9.439999c2.279999,4.139999 0.079994,9.849998 -4.139999,11.799999c-1.950005,0.789989 -4.120003,-0.23 -4.470001,-2.360001z" id="svg_14"/>
  <path fill="#ffffff" d="m54.279999,54.419998c-0.459999,-5.149998 5.98,-4.949997 9.420002,-5.969997c-1.100002,1.900009 -1.84,4.229988 -3.810001,5.439999c-1.66,1.130001 -3.75,0.549999 -5.610001,0.529999z" id="svg_15"/>
  <path fill="#0a75a2" d="m113.759987,62.679989c2.660011,0.030022 5.320015,0.030022 7.970016,0.030022c-5.18,7.849987 -10.12999,15.849987 -15.330017,23.679989c-2.599983,-0.019997 -5.199989,-0.029999 -7.80999,-0.029999c-0.179993,-7.899994 -0.969994,-15.760002 -1.07,-23.66c2.630005,0 5.260002,0 7.900002,0.02c-0.160011,5.039986 -0.279999,10.089996 -0.199997,15.139999c2.619995,-5.190002 5.600006,-10.169998 8.539986,-15.180012z" id="svg_16"/>
  <path fill="#0d739f" d="m210.970001,62.73c2.330002,0 4.649994,-0.019989 6.979996,-0.019989c-0.759995,2.839993 -1.580002,5.659977 -2.569992,8.419987c2.789993,-2.599998 6.639999,-3.05999 10.119995,-1.579994c2.190002,5.709984 -1.619995,11.329994 -2.830002,16.869995c-2.25,-0.029999 -4.509995,-0.049995 -6.759995,-0.069984c1.039993,-4.020012 2.589996,-7.950027 2.889999,-12.130013c-1.400009,0.339996 -3.5,-0.360001 -4.240005,1.279999c-1.720001,3.410004 -2.429993,7.199997 -3.550003,10.830002c-2.330002,0.020012 -4.649994,0.040001 -6.979996,0.059998c2.300003,-7.889999 4.639999,-15.769997 6.940002,-23.66z" id="svg_17"/>
  <path fill="#18709d" d="m177.460007,67.230003c0.459991,-1.659996 1.039993,-3.280003 1.509995,-4.940014c2.330002,-0.029999 4.660004,-0.039989 6.990005,-0.029999c-0.5,1.660007 -1.030014,3.330006 -1.530014,4.999996c-2.329987,-0.019974 -4.649994,-0.029984 -6.969986,-0.029984z" id="svg_18"/>
  <path fill="#0c749e" d="m147.369995,72.350014c1.940002,-2.240013 4.520004,-3.780006 7.529999,-3.920021c-0.539993,2.300011 -1.229996,4.570007 -1.889999,6.850006c-1.970001,0.330002 -4.429993,0.200005 -5.639999,2.139999c-1.73999,2.680016 -2.279999,5.919998 -3.220001,8.930016c-2.319992,0.009987 -4.639999,0.019989 -6.949997,0.039986c1.559998,-5.690002 3.449997,-11.289986 4.850006,-17.029999c2.229996,-0.080002 4.449997,-0.110001 6.679993,-0.139999c-0.339996,0.789986 -1.019989,2.350006 -1.360001,3.130013z" id="svg_19"/>
  <path fill="#0f739f" d="m116.860001,82c-1.070007,-8.839996 9.669998,-16.289993 17.589996,-12.25c3.430008,1.940002 2.979996,6.259987 2.76001,9.600014c-4.680008,0.089989 -9.359993,-0.030006 -14.030014,0.159973c0.390015,1.12001 1.200005,2 1.740005,3.050011c1.619995,0.220001 3.020004,-0.720001 4.410004,-1.380005c2.190002,-0.039993 4.389999,-0.030006 6.589996,0.030014c-2.279999,2.759995 -5.229996,5.30999 -8.990005,5.469986c-3.849991,0.719994 -9.12999,-0.170006 -10.069992,-4.679993z" id="svg_20"/>
  <path fill="#0e739d" d="m154.339996,76.220001c1.320007,-7.029999 10.040009,-9.239998 15.839996,-6.520004c1.840012,0.770004 1.570007,2.940002 1.950012,4.540016c-2.020004,0.029999 -4.040009,0.029999 -6.059998,-0.01001c-0.860001,-2.340004 -3.400009,-1.82 -4.590012,-0.140007c2.949997,1.199997 6.610001,1.320007 8.900009,3.760017c1.039993,2.009987 0.049988,4.579979 -1.550003,6.029999c-3.490005,3.389999 -8.910004,3.349991 -13.369995,2.439995c-2.340012,-0.540009 -2.950012,-3 -3.330002,-5.030014c2.190002,-0.229996 4.37999,-0.389992 6.569992,-0.5c0.470001,2.01001 2.240005,2.139999 3.949997,2.20002c0.070007,-0.590027 0.220001,-1.790016 0.300003,-2.389999c-3.160004,-0.830002 -6.830002,-1.25 -8.610001,-4.380013z" id="svg_21"/>
  <path fill="#10739c" d="m176.860001,69.289993c2.339996,-0.04998 4.669998,-0.069992 7.009995,-0.069992c-1.599991,5.709991 -3.399994,11.369995 -4.919998,17.110001c-2.339996,0.020012 -4.669998,0.039986 -7,0.059998c1.5,-5.740013 3.320007,-11.389999 4.910004,-17.100006z" id="svg_22"/>
  <path fill="#0f739e" d="m183.809998,82.100014c-1.029999,-9.010017 9.669998,-16.420021 17.770004,-12.44001c2.399994,1.059998 2.809998,3.729996 2.940002,6.059998c-2.350006,0.049995 -4.690002,0.069992 -7.040009,0.089996c-0.309998,-0.689995 -0.940002,-2.079994 -1.25,-2.770004c-4.099991,0.550003 -5.959991,5.12001 -5.089996,8.790009c1.139999,-0.009995 2.270004,-0.020004 3.410004,-0.029999c0.440002,-0.540016 1.330002,-1.62001 1.770004,-2.169991c2.37999,0 4.759995,0.009987 7.139999,0.05999c-2.01001,3.559998 -5.310013,6.73999 -9.610001,6.98999c-3.779999,0.600006 -9.100006,-0.109985 -10.040009,-4.579979z" id="svg_23"/>
  <path fill="#0e739c" d="m227.690002,83.330002c-2.770004,-9.220001 9.100006,-18.139999 17.320007,-13.430016c3.429993,1.920021 2.789978,6.240013 2.349976,9.5c-4.519989,0 -9.039978,-0.079979 -13.559998,0.110001c0.330017,0.920006 0.690002,1.840027 1.080017,2.740013c1.299988,0.730003 2.630005,-0.139999 3.899994,-0.5c2.459991,-1.050003 5.200012,-0.490013 7.790009,-0.429993c-2.399994,2.339996 -5.02002,4.889999 -8.529999,5.269989c-3.619995,0.540001 -8.490021,0.570007 -10.350006,-3.259995z" id="svg_24"/>
  <path fill="#0c73a0" d="m258.01001,71.899986c2.039978,-1.949989 4.519989,-3.37999 7.410004,-3.509987c-0.660004,2.340004 -1.360016,4.669998 -2.080017,7c-2.029999,0.180008 -4.559998,0.180008 -5.709991,2.210014c-1.589996,2.709984 -2.149994,5.849983 -3.130005,8.799973c-2.309998,-0.029999 -4.619995,-0.05999 -6.920013,-0.069984c1.75,-5.680016 3.330017,-11.419998 5.110016,-17.089989c2.100006,0 4.190002,0.009987 6.290009,0.019974c-0.240021,0.660011 -0.720001,1.980026 -0.970001,2.639999z" id="svg_25"/>
  <path fill="#0c749f" d="m267.079987,69.379997c2.26001,-0.239998 4.540009,-0.139984 6.820007,-0.149994c-1.049988,4.090004 -2.649994,8.079994 -2.880005,12.329994c1.430023,-0.259995 3.300018,0.050003 4.130005,-1.48999c1.860016,-3.340004 2.5,-7.200005 3.640015,-10.820007c2.319977,0 4.649994,0.010002 6.97998,0.029999c-1.73999,5.690002 -3.309998,11.440002 -5.139984,17.119987c-2.100006,-0.019974 -4.209991,-0.019974 -6.309998,-0.029984c0.149994,-0.5 0.449982,-1.510002 0.600006,-2.010002c-3.029999,2.529999 -9.52002,4.319992 -11.390015,-0.309998c-0.100006,-5.050003 2.049988,-9.920006 3.549988,-14.670006z" id="svg_26"/>
  <path fill="#0e739e" d="m288.730011,69.269997c2.109985,-0.019997 4.209991,-0.039993 6.319977,-0.049995c-0.179993,0.549995 -0.539978,1.660011 -0.720001,2.220001c2.01001,-1.300003 4.080017,-3.020004 6.650024,-2.810005c2.079987,-0.149994 4.829987,0.920006 4.829987,3.37999c0.190002,4.990013 -2.190002,9.62001 -3.410004,14.37001c-2.320007,-0.019997 -4.630005,-0.01001 -6.949982,-0.019997c1.22998,-3.919998 2.440002,-7.840004 3.25,-11.869987c-1.700012,-0.110016 -4.110016,-0.590027 -4.779999,1.529984c-1.470001,3.330017 -2.160004,6.94001 -3.340027,10.37999c-2.25,-0.029984 -4.5,-0.049973 -6.73999,-0.049973c1.410004,-5.75 3.209991,-11.400017 4.890015,-17.080017z" id="svg_27"/>
  <path fill="#0b74a0" d="m311.26001,71.279999c2.869995,-2.75 7.97998,-3.959991 10.859985,-0.580002c1.290009,-2.479996 4.570007,-1.099983 6.820007,-1.469994c-1.679993,5.529984 -3.119995,11.129997 -5,16.599998c-0.809998,2.849991 -3.290009,4.589996 -5.75,5.959991c-0.640015,-0.399994 -1.920013,-1.209991 -2.570007,-1.610001c0.209991,-0.619995 0.420013,-1.23999 0.640015,-1.849991c0.470001,-1.400009 1.130005,-2.720001 1.769989,-4.040009c-3.290009,1.389999 -8.019989,2.430008 -10.299988,-1.170006c-1.410004,-4.199989 0.410004,-8.909981 3.529999,-11.839989z" id="svg_28"/>
  <path fill="#ffffff" d="m124.389999,75.570007c1.539993,-1.770004 3.590004,-2.680008 5.949997,-2.380005c0.199997,0.630005 0.610001,1.899994 0.809998,2.540001c-2.259995,-0.010002 -4.509995,-0.050011 -6.759995,-0.159996z" id="svg_29"/>
  <path fill="#ffffff" d="m234.859985,75.570007c1.610016,-2.020004 3.880005,-2.87001 6.400024,-2.079994c0.029999,0.569984 0.089996,1.719994 0.130005,2.289986c-2.180023,-0.039986 -4.360016,-0.089996 -6.530029,-0.209991z" id="svg_30"/>
  <path fill="#ffffff" d="m314.459991,80.669998c-0.149994,-2.660011 0.300018,-6.599991 3.570007,-7.020012c2.279999,-0.55999 2.790009,2.610016 1.75,4.100014c-0.660004,2.399986 -3.070007,3.230003 -5.320007,2.919998z" id="svg_31"/>
  <path fill="#1a6e93" d="m305.190002,87.289993c3.730011,-0.289993 7.450012,0.070007 11.070007,1.040009c-0.220001,0.610001 -0.430023,1.229996 -0.640015,1.849991c0.649994,0.400009 1.929993,1.210007 2.570007,1.610001c-4.540009,0.420013 -11.910004,1.600006 -13,-4.5z" id="svg_32"/>
 </g>
</svg>